
<svg version="1.0" xmlns="http://www.w3.org/2000/svg"
 width="205.000000pt" height="246.000000pt" viewBox="0 0 205.000000 246.000000"
 preserveAspectRatio="xMidYMid meet">

<g transform="translate(0.000000,246.000000) scale(0.100000,-0.100000)"
fill="#000000" stroke="none">
<path d="M969 2331 c-17 -18 -29 -40 -29 -56 0 -14 -6 -27 -12 -29 -7 -2 -47
-11 -90 -20 -241 -53 -461 -243 -551 -475 -54 -138 -57 -171 -57 -607 l0 -401
-101 -117 c-82 -95 -100 -122 -97 -144 l3 -27 970 -3 c534 -1 980 0 993 3 44
11 27 48 -77 171 l-100 117 -3 426 c-4 471 -5 474 -74 620 -81 173 -198 292
-371 379 -67 34 -191 72 -235 72 -25 0 -28 4 -28 31 0 39 -48 89 -85 89 -16 0
-38 -12 -56 -29z m226 -228 c168 -42 342 -181 422 -338 75 -146 75 -150 80
-615 l5 -415 59 -80 60 -80 -395 -3 c-217 -1 -575 -1 -796 0 l-401 3 60 80 60
80 3 415 c4 356 7 424 22 475 69 241 275 437 506 484 114 23 208 21 315 -6z"/>
<path d="M605 318 c33 -153 205 -258 420 -258 136 0 252 39 330 111 50 46 78
93 88 147 l7 32 -63 0 c-63 0 -63 0 -76 -35 -34 -95 -222 -154 -381 -121 -97
21 -159 58 -185 113 l-20 42 -63 1 -64 0 7 -32z"/>
</g>
</svg>
