<?xml version="1.0" standalone="no"?>
<!DOCTYPE svg PUBLIC "-//W3C//DTD SVG 20010904//EN"
 "http://www.w3.org/TR/2001/REC-SVG-20010904/DTD/svg10.dtd">
<svg version="1.0" xmlns="http://www.w3.org/2000/svg"
 width="240.000000pt" height="240.000000pt" viewBox="0 0 240.000000 240.000000"
 preserveAspectRatio="xMidYMid meet">

<g transform="translate(0.000000,240.000000) scale(0.100000,-0.100000)"
fill="#000000" stroke="none">
<path d="M761 2379 c-294 -63 -531 -247 -661 -514 -71 -144 -94 -247 -94 -415
0 -168 23 -271 94 -415 122 -250 356 -439 625 -507 136 -34 334 -32 467 5 134
37 282 113 361 186 l28 25 372 -372 372 -372 38 37 37 38 -372 372 -372 372
25 28 c73 79 149 227 186 361 37 133 39 331 5 467 -30 119 -106 271 -183 368
-122 153 -321 281 -509 327 -127 32 -299 35 -419 9z m424 -114 c112 -33 201
-79 294 -154 136 -108 235 -256 287 -426 24 -80 27 -106 27 -235 0 -129 -3
-155 -27 -235 -34 -113 -81 -202 -155 -294 -108 -136 -256 -235 -426 -287 -80
-24 -106 -27 -235 -27 -129 0 -155 3 -235 27 -170 52 -318 151 -426 287 -74
92 -121 181 -155 294 -24 80 -27 106 -27 235 0 129 3 155 27 235 34 113 81
202 155 294 129 162 316 273 528 311 89 16 269 4 368 -25z"/>
</g>
</svg>
